<mxfile host="app.diagrams.net" modified="2023-08-30T03:47:15.834Z" agent="Mozilla/5.0 (Windows NT 10.0; Win64; x64) AppleWebKit/537.36 (KHTML, like Gecko) Chrome/116.0.0.0 Safari/537.36" etag="4wAkxmoKE5Gqb0w6shqG" version="21.7.0" type="github">
  <diagram name="第 1 页" id="wt3sah90XnY-p5enFY8T">
    <mxGraphModel dx="1434" dy="750" grid="1" gridSize="10" guides="1" tooltips="1" connect="1" arrows="1" fold="1" page="1" pageScale="1" pageWidth="1920" pageHeight="1200" math="0" shadow="0">
      <root>
        <mxCell id="0" />
        <mxCell id="1" parent="0" />
        <mxCell id="RshrCjI9zqZA6IW6MyPS-2" value="" style="rounded=1;whiteSpace=wrap;html=1;" parent="1" vertex="1">
          <mxGeometry x="1020" y="280" width="240" height="370" as="geometry" />
        </mxCell>
        <mxCell id="RshrCjI9zqZA6IW6MyPS-8" style="edgeStyle=orthogonalEdgeStyle;rounded=0;orthogonalLoop=1;jettySize=auto;html=1;" parent="1" source="RshrCjI9zqZA6IW6MyPS-3" target="RshrCjI9zqZA6IW6MyPS-4" edge="1">
          <mxGeometry relative="1" as="geometry" />
        </mxCell>
        <mxCell id="RshrCjI9zqZA6IW6MyPS-19" value="HTML or TEXT" style="edgeLabel;html=1;align=center;verticalAlign=middle;resizable=0;points=[];" parent="RshrCjI9zqZA6IW6MyPS-8" vertex="1" connectable="0">
          <mxGeometry x="-0.0742" relative="1" as="geometry">
            <mxPoint as="offset" />
          </mxGeometry>
        </mxCell>
        <mxCell id="RshrCjI9zqZA6IW6MyPS-3" value="&lt;font style=&quot;font-size: 14px;&quot;&gt;User&lt;/font&gt;" style="sketch=0;outlineConnect=0;fontColor=#232F3E;gradientColor=none;fillColor=#232F3D;strokeColor=none;dashed=0;verticalLabelPosition=bottom;verticalAlign=top;align=center;html=1;fontSize=12;fontStyle=0;aspect=fixed;pointerEvents=1;shape=mxgraph.aws4.user;" parent="1" vertex="1">
          <mxGeometry x="730" y="331" width="78" height="78" as="geometry" />
        </mxCell>
        <mxCell id="RshrCjI9zqZA6IW6MyPS-9" style="edgeStyle=orthogonalEdgeStyle;rounded=0;orthogonalLoop=1;jettySize=auto;html=1;exitX=0.5;exitY=1;exitDx=0;exitDy=0;entryX=0.5;entryY=0;entryDx=0;entryDy=0;" parent="1" source="RshrCjI9zqZA6IW6MyPS-4" target="RshrCjI9zqZA6IW6MyPS-5" edge="1">
          <mxGeometry relative="1" as="geometry" />
        </mxCell>
        <mxCell id="RshrCjI9zqZA6IW6MyPS-4" value="&lt;font style=&quot;font-size: 14px;&quot;&gt;WEB backend&lt;/font&gt;" style="rounded=1;whiteSpace=wrap;html=1;dashed=1;" parent="1" vertex="1">
          <mxGeometry x="1080" y="340" width="120" height="60" as="geometry" />
        </mxCell>
        <mxCell id="RshrCjI9zqZA6IW6MyPS-10" style="edgeStyle=orthogonalEdgeStyle;rounded=0;orthogonalLoop=1;jettySize=auto;html=1;" parent="1" source="RshrCjI9zqZA6IW6MyPS-5" target="RshrCjI9zqZA6IW6MyPS-6" edge="1">
          <mxGeometry relative="1" as="geometry" />
        </mxCell>
        <mxCell id="RshrCjI9zqZA6IW6MyPS-5" value="&lt;font style=&quot;font-size: 14px;&quot;&gt;PDF Renderers&lt;/font&gt;" style="rounded=1;whiteSpace=wrap;html=1;dashed=1;" parent="1" vertex="1">
          <mxGeometry x="1080" y="435" width="120" height="60" as="geometry" />
        </mxCell>
        <mxCell id="RshrCjI9zqZA6IW6MyPS-6" value="&lt;font style=&quot;font-size: 14px;&quot;&gt;output.pdf&lt;/font&gt;" style="rounded=1;whiteSpace=wrap;html=1;" parent="1" vertex="1">
          <mxGeometry x="1080" y="530" width="120" height="60" as="geometry" />
        </mxCell>
        <mxCell id="RshrCjI9zqZA6IW6MyPS-16" style="rounded=0;orthogonalLoop=1;jettySize=auto;html=1;" parent="1" source="RshrCjI9zqZA6IW6MyPS-11" target="RshrCjI9zqZA6IW6MyPS-5" edge="1">
          <mxGeometry relative="1" as="geometry" />
        </mxCell>
        <mxCell id="RshrCjI9zqZA6IW6MyPS-11" value="&lt;font style=&quot;font-size: 14px;&quot;&gt;&lt;b&gt;wkhtmlpdf&lt;br&gt;Headless Chrome&amp;nbsp;&lt;br&gt;WeasyPrint&amp;nbsp;&lt;/b&gt;&lt;br&gt;&lt;/font&gt;" style="ellipse;whiteSpace=wrap;html=1;dashed=1;dashPattern=12 12;" parent="1" vertex="1">
          <mxGeometry x="1310" y="407.5" width="150" height="115" as="geometry" />
        </mxCell>
      </root>
    </mxGraphModel>
  </diagram>
</mxfile>
